<svg width="177" height="154" viewBox="0 0 177 154" fill="none" xmlns="http://www.w3.org/2000/svg">
<ellipse cx="3.53852" cy="3.5" rx="3.53852" ry="3.5" fill="#DFEEFF"/>
<ellipse cx="3.53852" cy="24.5" rx="3.53852" ry="3.5" fill="#DFEEFF"/>
<ellipse cx="3.53852" cy="45.5" rx="3.53852" ry="3.5" fill="#DFEEFF"/>
<ellipse cx="3.53852" cy="66.5" rx="3.53852" ry="3.5" fill="#DFEEFF"/>
<ellipse cx="3.53852" cy="87.5" rx="3.53852" ry="3.5" fill="#DFEEFF"/>
<ellipse cx="3.53852" cy="108.5" rx="3.53852" ry="3.5" fill="#DFEEFF"/>
<ellipse cx="3.53852" cy="129.5" rx="3.53852" ry="3.5" fill="#DFEEFF"/>
<ellipse cx="3.53852" cy="150.5" rx="3.53852" ry="3.5" fill="#DFEEFF"/>
<ellipse cx="24.7691" cy="3.5" rx="3.53852" ry="3.5" fill="#DFEEFF"/>
<ellipse cx="24.7691" cy="24.5" rx="3.53852" ry="3.5" fill="#DFEEFF"/>
<ellipse cx="24.7691" cy="45.5" rx="3.53852" ry="3.5" fill="#DFEEFF"/>
<ellipse cx="24.7691" cy="66.5" rx="3.53852" ry="3.5" fill="#DFEEFF"/>
<ellipse cx="24.7691" cy="87.5" rx="3.53852" ry="3.5" fill="#DFEEFF"/>
<ellipse cx="24.7691" cy="108.5" rx="3.53852" ry="3.5" fill="#DFEEFF"/>
<ellipse cx="24.7691" cy="129.5" rx="3.53852" ry="3.5" fill="#DFEEFF"/>
<ellipse cx="24.7691" cy="150.5" rx="3.53852" ry="3.5" fill="#DFEEFF"/>
<ellipse cx="46.0004" cy="3.5" rx="3.53852" ry="3.5" fill="#DFEEFF"/>
<ellipse cx="46.0004" cy="24.5" rx="3.53852" ry="3.5" fill="#DFEEFF"/>
<ellipse cx="46.0004" cy="45.5" rx="3.53852" ry="3.5" fill="#DFEEFF"/>
<ellipse cx="46.0004" cy="66.5" rx="3.53852" ry="3.5" fill="#DFEEFF"/>
<ellipse cx="46.0004" cy="87.5" rx="3.53852" ry="3.5" fill="#DFEEFF"/>
<ellipse cx="46.0004" cy="108.5" rx="3.53852" ry="3.5" fill="#DFEEFF"/>
<ellipse cx="46.0004" cy="129.5" rx="3.53852" ry="3.5" fill="#DFEEFF"/>
<ellipse cx="46.0004" cy="150.5" rx="3.53852" ry="3.5" fill="#DFEEFF"/>
<ellipse cx="67.2316" cy="3.5" rx="3.53852" ry="3.5" fill="#DFEEFF"/>
<ellipse cx="67.2316" cy="24.5" rx="3.53852" ry="3.5" fill="#DFEEFF"/>
<ellipse cx="67.2316" cy="45.5" rx="3.53852" ry="3.5" fill="#DFEEFF"/>
<ellipse cx="67.2316" cy="66.5" rx="3.53852" ry="3.5" fill="#DFEEFF"/>
<ellipse cx="67.2316" cy="87.5" rx="3.53852" ry="3.5" fill="#DFEEFF"/>
<ellipse cx="67.2316" cy="108.5" rx="3.53852" ry="3.5" fill="#DFEEFF"/>
<ellipse cx="67.2316" cy="129.5" rx="3.53852" ry="3.5" fill="#DFEEFF"/>
<ellipse cx="67.2316" cy="150.5" rx="3.53852" ry="3.5" fill="#DFEEFF"/>
<ellipse cx="88.463" cy="3.5" rx="3.53852" ry="3.5" fill="#DFEEFF"/>
<ellipse cx="88.463" cy="24.5" rx="3.53852" ry="3.5" fill="#DFEEFF"/>
<ellipse cx="88.463" cy="45.5" rx="3.53852" ry="3.5" fill="#DFEEFF"/>
<ellipse cx="88.463" cy="66.5" rx="3.53852" ry="3.5" fill="#DFEEFF"/>
<ellipse cx="88.463" cy="87.5" rx="3.53852" ry="3.5" fill="#DFEEFF"/>
<ellipse cx="88.463" cy="108.5" rx="3.53852" ry="3.5" fill="#DFEEFF"/>
<ellipse cx="88.463" cy="129.5" rx="3.53852" ry="3.5" fill="#DFEEFF"/>
<ellipse cx="88.463" cy="150.5" rx="3.53852" ry="3.5" fill="#DFEEFF"/>
<ellipse cx="109.694" cy="3.5" rx="3.53852" ry="3.5" fill="#DFEEFF"/>
<ellipse cx="109.694" cy="24.5" rx="3.53852" ry="3.5" fill="#DFEEFF"/>
<ellipse cx="109.694" cy="45.5" rx="3.53852" ry="3.5" fill="#DFEEFF"/>
<ellipse cx="109.694" cy="66.5" rx="3.53852" ry="3.5" fill="#DFEEFF"/>
<ellipse cx="109.694" cy="87.5" rx="3.53852" ry="3.5" fill="#DFEEFF"/>
<ellipse cx="109.694" cy="108.5" rx="3.53852" ry="3.5" fill="#DFEEFF"/>
<ellipse cx="109.694" cy="129.5" rx="3.53852" ry="3.5" fill="#DFEEFF"/>
<ellipse cx="109.694" cy="150.5" rx="3.53852" ry="3.5" fill="#DFEEFF"/>
<ellipse cx="130.925" cy="3.5" rx="3.53852" ry="3.5" fill="#DFEEFF"/>
<ellipse cx="130.925" cy="24.5" rx="3.53852" ry="3.5" fill="#DFEEFF"/>
<ellipse cx="130.925" cy="45.5" rx="3.53852" ry="3.5" fill="#DFEEFF"/>
<ellipse cx="130.925" cy="66.5" rx="3.53852" ry="3.5" fill="#DFEEFF"/>
<ellipse cx="130.925" cy="87.5" rx="3.53852" ry="3.5" fill="#DFEEFF"/>
<ellipse cx="130.925" cy="108.5" rx="3.53852" ry="3.5" fill="#DFEEFF"/>
<ellipse cx="130.925" cy="129.5" rx="3.53852" ry="3.5" fill="#DFEEFF"/>
<ellipse cx="130.925" cy="150.5" rx="3.53852" ry="3.5" fill="#DFEEFF"/>
<ellipse cx="152.156" cy="3.5" rx="3.53852" ry="3.5" fill="#DFEEFF"/>
<ellipse cx="152.156" cy="24.5" rx="3.53852" ry="3.5" fill="#DFEEFF"/>
<ellipse cx="152.156" cy="45.5" rx="3.53852" ry="3.5" fill="#DFEEFF"/>
<ellipse cx="152.156" cy="66.5" rx="3.53852" ry="3.5" fill="#DFEEFF"/>
<ellipse cx="152.156" cy="87.5" rx="3.53852" ry="3.5" fill="#DFEEFF"/>
<ellipse cx="152.156" cy="108.5" rx="3.53852" ry="3.5" fill="#DFEEFF"/>
<ellipse cx="152.156" cy="129.5" rx="3.53852" ry="3.5" fill="#DFEEFF"/>
<ellipse cx="152.156" cy="150.5" rx="3.53852" ry="3.5" fill="#DFEEFF"/>
<ellipse cx="173.388" cy="3.5" rx="3.53852" ry="3.5" fill="#DFEEFF"/>
<ellipse cx="173.388" cy="24.5" rx="3.53852" ry="3.5" fill="#DFEEFF"/>
<ellipse cx="173.388" cy="45.5" rx="3.53852" ry="3.5" fill="#DFEEFF"/>
<ellipse cx="173.388" cy="66.5" rx="3.53852" ry="3.5" fill="#DFEEFF"/>
<ellipse cx="173.388" cy="87.5" rx="3.53852" ry="3.5" fill="#DFEEFF"/>
<ellipse cx="173.388" cy="108.5" rx="3.53852" ry="3.5" fill="#DFEEFF"/>
<ellipse cx="173.388" cy="129.5" rx="3.53852" ry="3.5" fill="#DFEEFF"/>
<ellipse cx="173.388" cy="150.5" rx="3.53852" ry="3.5" fill="#DFEEFF"/>
</svg>
