<svg width="25" height="25" viewBox="0 0 25 25" fill="none" xmlns="http://www.w3.org/2000/svg">
<path fill-rule="evenodd" clip-rule="evenodd" d="M2.77509 1.61331C5.10475 -0.732615 9.03609 -0.55428 10.6582 2.37259L11.5582 3.99641C12.6174 5.90773 12.166 8.31929 10.6153 9.89989C10.5947 9.92838 10.4852 10.0889 10.4716 10.3693C10.4542 10.7272 10.5804 11.5549 11.854 12.8373C13.1271 14.1193 13.9489 14.2467 14.3045 14.2293C14.5832 14.2157 14.7427 14.1054 14.771 14.0846C16.3407 12.5231 18.7355 12.0685 20.6336 13.1352L22.2461 14.0414C25.1527 15.6749 25.3298 19.6336 23.0002 21.9796C21.754 23.2344 20.0971 24.3493 18.15 24.4237C15.2645 24.5338 10.4733 23.7835 5.7285 19.0055C0.983706 14.2276 0.238542 9.40298 0.347931 6.49733C0.421746 4.53662 1.52897 2.86812 2.77509 1.61331ZM8.84194 3.39329C8.01132 1.89456 5.77924 1.55023 4.24585 3.09433C3.17072 4.17697 2.47176 5.37196 2.4264 6.57668C2.33518 8.99977 2.92928 13.2247 7.19926 17.5245C11.4692 21.8243 15.6649 22.4225 18.0712 22.3307C19.2676 22.285 20.4543 21.5812 21.5294 20.4985C23.0628 18.9544 22.7209 16.7068 21.2325 15.8704L19.6199 14.9641C18.6168 14.4004 17.2078 14.5927 16.2187 15.5887C16.1216 15.6865 15.5031 16.2676 14.4056 16.3213C13.2821 16.3764 11.9222 15.868 10.3832 14.3183C8.84374 12.7681 8.33911 11.3983 8.39412 10.2668C8.44786 9.16163 9.02502 8.53942 9.12159 8.44217C10.1107 7.44614 10.3017 6.02724 9.74189 5.01712L8.84194 3.39329Z" fill="#005CB9"/>
</svg>
