<svg width="1287" height="387" viewBox="0 0 1287 387" fill="none" xmlns="http://www.w3.org/2000/svg">
<ellipse cx="1113.42" cy="3.5" rx="3.53852" ry="3.5" fill="#DFEEFF"/>
<ellipse cx="1113.42" cy="24.5" rx="3.53852" ry="3.5" fill="#DFEEFF"/>
<ellipse cx="1113.42" cy="45.5" rx="3.53852" ry="3.5" fill="#DFEEFF"/>
<ellipse cx="1113.42" cy="66.5" rx="3.53852" ry="3.5" fill="#DFEEFF"/>
<ellipse cx="1113.42" cy="87.5" rx="3.53852" ry="3.5" fill="#DFEEFF"/>
<ellipse cx="1113.42" cy="108.5" rx="3.53852" ry="3.5" fill="#DFEEFF"/>
<ellipse cx="1113.42" cy="129.5" rx="3.53852" ry="3.5" fill="#DFEEFF"/>
<ellipse cx="1113.42" cy="150.5" rx="3.53852" ry="3.5" fill="#DFEEFF"/>
<ellipse cx="1134.65" cy="3.5" rx="3.53852" ry="3.5" fill="#DFEEFF"/>
<ellipse cx="1134.65" cy="24.5" rx="3.53852" ry="3.5" fill="#DFEEFF"/>
<ellipse cx="1134.65" cy="45.5" rx="3.53852" ry="3.5" fill="#DFEEFF"/>
<ellipse cx="1134.65" cy="66.5" rx="3.53852" ry="3.5" fill="#DFEEFF"/>
<ellipse cx="1134.65" cy="87.5" rx="3.53852" ry="3.5" fill="#DFEEFF"/>
<ellipse cx="1134.65" cy="108.5" rx="3.53852" ry="3.5" fill="#DFEEFF"/>
<ellipse cx="1134.65" cy="129.5" rx="3.53852" ry="3.5" fill="#DFEEFF"/>
<ellipse cx="1134.65" cy="150.5" rx="3.53852" ry="3.5" fill="#DFEEFF"/>
<ellipse cx="1155.88" cy="3.5" rx="3.53852" ry="3.5" fill="#DFEEFF"/>
<ellipse cx="1155.88" cy="24.5" rx="3.53852" ry="3.5" fill="#DFEEFF"/>
<ellipse cx="1155.88" cy="45.5" rx="3.53852" ry="3.5" fill="#DFEEFF"/>
<ellipse cx="1155.88" cy="66.5" rx="3.53852" ry="3.5" fill="#DFEEFF"/>
<ellipse cx="1155.88" cy="87.5" rx="3.53852" ry="3.5" fill="#DFEEFF"/>
<ellipse cx="1155.88" cy="108.5" rx="3.53852" ry="3.5" fill="#DFEEFF"/>
<ellipse cx="1155.88" cy="129.5" rx="3.53852" ry="3.5" fill="#DFEEFF"/>
<ellipse cx="1155.88" cy="150.5" rx="3.53852" ry="3.5" fill="#DFEEFF"/>
<ellipse cx="1177.11" cy="3.5" rx="3.53852" ry="3.5" fill="#DFEEFF"/>
<ellipse cx="1177.11" cy="24.5" rx="3.53852" ry="3.5" fill="#DFEEFF"/>
<ellipse cx="1177.11" cy="45.5" rx="3.53852" ry="3.5" fill="#DFEEFF"/>
<ellipse cx="1177.11" cy="66.5" rx="3.53852" ry="3.5" fill="#DFEEFF"/>
<ellipse cx="1177.11" cy="87.5" rx="3.53852" ry="3.5" fill="#DFEEFF"/>
<ellipse cx="1177.11" cy="108.5" rx="3.53852" ry="3.5" fill="#DFEEFF"/>
<ellipse cx="1177.11" cy="129.5" rx="3.53852" ry="3.5" fill="#DFEEFF"/>
<ellipse cx="1177.11" cy="150.5" rx="3.53852" ry="3.5" fill="#DFEEFF"/>
<ellipse cx="1198.35" cy="3.5" rx="3.53852" ry="3.5" fill="#DFEEFF"/>
<ellipse cx="1198.35" cy="24.5" rx="3.53852" ry="3.5" fill="#DFEEFF"/>
<ellipse cx="1198.35" cy="45.5" rx="3.53852" ry="3.5" fill="#DFEEFF"/>
<ellipse cx="1198.35" cy="66.5" rx="3.53852" ry="3.5" fill="#DFEEFF"/>
<ellipse cx="1198.35" cy="87.5" rx="3.53852" ry="3.5" fill="#DFEEFF"/>
<ellipse cx="1198.35" cy="108.5" rx="3.53852" ry="3.5" fill="#DFEEFF"/>
<ellipse cx="1198.35" cy="129.5" rx="3.53852" ry="3.5" fill="#DFEEFF"/>
<ellipse cx="1198.35" cy="150.5" rx="3.53852" ry="3.5" fill="#DFEEFF"/>
<ellipse cx="1219.58" cy="3.5" rx="3.53852" ry="3.5" fill="#DFEEFF"/>
<ellipse cx="1219.58" cy="24.5" rx="3.53852" ry="3.5" fill="#DFEEFF"/>
<ellipse cx="1219.58" cy="45.5" rx="3.53852" ry="3.5" fill="#DFEEFF"/>
<ellipse cx="1219.58" cy="66.5" rx="3.53852" ry="3.5" fill="#DFEEFF"/>
<ellipse cx="1219.58" cy="87.5" rx="3.53852" ry="3.5" fill="#DFEEFF"/>
<ellipse cx="1219.58" cy="108.5" rx="3.53852" ry="3.5" fill="#DFEEFF"/>
<ellipse cx="1219.58" cy="129.5" rx="3.53852" ry="3.5" fill="#DFEEFF"/>
<ellipse cx="1219.58" cy="150.5" rx="3.53852" ry="3.5" fill="#DFEEFF"/>
<ellipse cx="1240.81" cy="3.5" rx="3.53852" ry="3.5" fill="#DFEEFF"/>
<ellipse cx="1240.81" cy="24.5" rx="3.53852" ry="3.5" fill="#DFEEFF"/>
<ellipse cx="1240.81" cy="45.5" rx="3.53852" ry="3.5" fill="#DFEEFF"/>
<ellipse cx="1240.81" cy="66.5" rx="3.53852" ry="3.5" fill="#DFEEFF"/>
<ellipse cx="1240.81" cy="87.5" rx="3.53852" ry="3.5" fill="#DFEEFF"/>
<ellipse cx="1240.81" cy="108.5" rx="3.53852" ry="3.5" fill="#DFEEFF"/>
<ellipse cx="1240.81" cy="129.5" rx="3.53852" ry="3.5" fill="#DFEEFF"/>
<ellipse cx="1240.81" cy="150.5" rx="3.53852" ry="3.5" fill="#DFEEFF"/>
<ellipse cx="1262.04" cy="3.5" rx="3.53852" ry="3.5" fill="#DFEEFF"/>
<ellipse cx="1262.04" cy="24.5" rx="3.53852" ry="3.5" fill="#DFEEFF"/>
<ellipse cx="1262.04" cy="45.5" rx="3.53852" ry="3.5" fill="#DFEEFF"/>
<ellipse cx="1262.04" cy="66.5" rx="3.53852" ry="3.5" fill="#DFEEFF"/>
<ellipse cx="1262.04" cy="87.5" rx="3.53852" ry="3.5" fill="#DFEEFF"/>
<ellipse cx="1262.04" cy="108.5" rx="3.53852" ry="3.5" fill="#DFEEFF"/>
<ellipse cx="1262.04" cy="129.5" rx="3.53852" ry="3.5" fill="#DFEEFF"/>
<ellipse cx="1262.04" cy="150.5" rx="3.53852" ry="3.5" fill="#DFEEFF"/>
<ellipse cx="1283.27" cy="3.5" rx="3.53852" ry="3.5" fill="#DFEEFF"/>
<ellipse cx="1283.27" cy="24.5" rx="3.53852" ry="3.5" fill="#DFEEFF"/>
<ellipse cx="1283.27" cy="45.5" rx="3.53852" ry="3.5" fill="#DFEEFF"/>
<ellipse cx="1283.27" cy="66.5" rx="3.53852" ry="3.5" fill="#DFEEFF"/>
<ellipse cx="1283.27" cy="87.5" rx="3.53852" ry="3.5" fill="#DFEEFF"/>
<ellipse cx="1283.27" cy="108.5" rx="3.53852" ry="3.5" fill="#DFEEFF"/>
<ellipse cx="1283.27" cy="129.5" rx="3.53852" ry="3.5" fill="#DFEEFF"/>
<ellipse cx="1283.27" cy="150.5" rx="3.53852" ry="3.5" fill="#DFEEFF"/>
<path d="M180.767 209L180.767 387L100.808 387C45.5796 387 0.808031 342.228 0.80803 287L0.808029 209L180.767 209Z" fill="#FEC828" fill-opacity="0.2"/>
<rect x="39.2264" y="42" width="1210.17" height="306" rx="75" fill="#E6F1F7"/>
</svg>
