<svg width="178" height="154" viewBox="0 0 178 154" fill="none" xmlns="http://www.w3.org/2000/svg">
<ellipse cx="4.42085" cy="3.5" rx="3.53852" ry="3.5" fill="#DFEEFF"/>
<ellipse cx="4.42085" cy="24.5" rx="3.53852" ry="3.5" fill="#DFEEFF"/>
<ellipse cx="4.42085" cy="45.5" rx="3.53852" ry="3.5" fill="#DFEEFF"/>
<ellipse cx="4.42085" cy="66.5" rx="3.53852" ry="3.5" fill="#DFEEFF"/>
<ellipse cx="4.42085" cy="87.5" rx="3.53852" ry="3.5" fill="#DFEEFF"/>
<ellipse cx="4.42085" cy="108.5" rx="3.53852" ry="3.5" fill="#DFEEFF"/>
<ellipse cx="4.42085" cy="129.5" rx="3.53852" ry="3.5" fill="#DFEEFF"/>
<ellipse cx="4.42085" cy="150.5" rx="3.53852" ry="3.5" fill="#DFEEFF"/>
<ellipse cx="25.6513" cy="3.5" rx="3.53852" ry="3.5" fill="#DFEEFF"/>
<ellipse cx="25.6513" cy="24.5" rx="3.53852" ry="3.5" fill="#DFEEFF"/>
<ellipse cx="25.6513" cy="45.5" rx="3.53852" ry="3.5" fill="#DFEEFF"/>
<ellipse cx="25.6513" cy="66.5" rx="3.53852" ry="3.5" fill="#DFEEFF"/>
<ellipse cx="25.6513" cy="87.5" rx="3.53852" ry="3.5" fill="#DFEEFF"/>
<ellipse cx="25.6513" cy="108.5" rx="3.53852" ry="3.5" fill="#DFEEFF"/>
<ellipse cx="25.6513" cy="129.5" rx="3.53852" ry="3.5" fill="#DFEEFF"/>
<ellipse cx="25.6513" cy="150.5" rx="3.53852" ry="3.5" fill="#DFEEFF"/>
<ellipse cx="46.8828" cy="3.5" rx="3.53852" ry="3.5" fill="#DFEEFF"/>
<ellipse cx="46.8828" cy="24.5" rx="3.53852" ry="3.5" fill="#DFEEFF"/>
<ellipse cx="46.8828" cy="45.5" rx="3.53852" ry="3.5" fill="#DFEEFF"/>
<ellipse cx="46.8828" cy="66.5" rx="3.53852" ry="3.5" fill="#DFEEFF"/>
<ellipse cx="46.8828" cy="87.5" rx="3.53852" ry="3.5" fill="#DFEEFF"/>
<ellipse cx="46.8828" cy="108.5" rx="3.53852" ry="3.5" fill="#DFEEFF"/>
<ellipse cx="46.8828" cy="129.5" rx="3.53852" ry="3.5" fill="#DFEEFF"/>
<ellipse cx="46.8828" cy="150.5" rx="3.53852" ry="3.5" fill="#DFEEFF"/>
<ellipse cx="68.114" cy="3.5" rx="3.53852" ry="3.5" fill="#DFEEFF"/>
<ellipse cx="68.114" cy="24.5" rx="3.53852" ry="3.5" fill="#DFEEFF"/>
<ellipse cx="68.114" cy="45.5" rx="3.53852" ry="3.5" fill="#DFEEFF"/>
<ellipse cx="68.114" cy="66.5" rx="3.53852" ry="3.5" fill="#DFEEFF"/>
<ellipse cx="68.114" cy="87.5" rx="3.53852" ry="3.5" fill="#DFEEFF"/>
<ellipse cx="68.114" cy="108.5" rx="3.53852" ry="3.5" fill="#DFEEFF"/>
<ellipse cx="68.114" cy="129.5" rx="3.53852" ry="3.5" fill="#DFEEFF"/>
<ellipse cx="68.114" cy="150.5" rx="3.53852" ry="3.5" fill="#DFEEFF"/>
<ellipse cx="89.3452" cy="3.5" rx="3.53852" ry="3.5" fill="#DFEEFF"/>
<ellipse cx="89.3452" cy="24.5" rx="3.53852" ry="3.5" fill="#DFEEFF"/>
<ellipse cx="89.3452" cy="45.5" rx="3.53852" ry="3.5" fill="#DFEEFF"/>
<ellipse cx="89.3452" cy="66.5" rx="3.53852" ry="3.5" fill="#DFEEFF"/>
<ellipse cx="89.3452" cy="87.5" rx="3.53852" ry="3.5" fill="#DFEEFF"/>
<ellipse cx="89.3452" cy="108.5" rx="3.53852" ry="3.5" fill="#DFEEFF"/>
<ellipse cx="89.3452" cy="129.5" rx="3.53852" ry="3.5" fill="#DFEEFF"/>
<ellipse cx="89.3452" cy="150.5" rx="3.53852" ry="3.5" fill="#DFEEFF"/>
<ellipse cx="110.576" cy="3.5" rx="3.53852" ry="3.5" fill="#DFEEFF"/>
<ellipse cx="110.576" cy="24.5" rx="3.53852" ry="3.5" fill="#DFEEFF"/>
<ellipse cx="110.576" cy="45.5" rx="3.53852" ry="3.5" fill="#DFEEFF"/>
<ellipse cx="110.576" cy="66.5" rx="3.53852" ry="3.5" fill="#DFEEFF"/>
<ellipse cx="110.576" cy="87.5" rx="3.53852" ry="3.5" fill="#DFEEFF"/>
<ellipse cx="110.576" cy="108.5" rx="3.53852" ry="3.5" fill="#DFEEFF"/>
<ellipse cx="110.576" cy="129.5" rx="3.53852" ry="3.5" fill="#DFEEFF"/>
<ellipse cx="110.576" cy="150.5" rx="3.53852" ry="3.5" fill="#DFEEFF"/>
<ellipse cx="131.807" cy="3.5" rx="3.53852" ry="3.5" fill="#DFEEFF"/>
<ellipse cx="131.807" cy="24.5" rx="3.53852" ry="3.5" fill="#DFEEFF"/>
<ellipse cx="131.807" cy="45.5" rx="3.53852" ry="3.5" fill="#DFEEFF"/>
<ellipse cx="131.807" cy="66.5" rx="3.53852" ry="3.5" fill="#DFEEFF"/>
<ellipse cx="131.807" cy="87.5" rx="3.53852" ry="3.5" fill="#DFEEFF"/>
<ellipse cx="131.807" cy="108.5" rx="3.53852" ry="3.5" fill="#DFEEFF"/>
<ellipse cx="131.807" cy="129.5" rx="3.53852" ry="3.5" fill="#DFEEFF"/>
<ellipse cx="131.807" cy="150.5" rx="3.53852" ry="3.5" fill="#DFEEFF"/>
<ellipse cx="153.039" cy="3.5" rx="3.53852" ry="3.5" fill="#DFEEFF"/>
<ellipse cx="153.039" cy="24.5" rx="3.53852" ry="3.5" fill="#DFEEFF"/>
<ellipse cx="153.039" cy="45.5" rx="3.53852" ry="3.5" fill="#DFEEFF"/>
<ellipse cx="153.039" cy="66.5" rx="3.53852" ry="3.5" fill="#DFEEFF"/>
<ellipse cx="153.039" cy="87.5" rx="3.53852" ry="3.5" fill="#DFEEFF"/>
<ellipse cx="153.039" cy="108.5" rx="3.53852" ry="3.5" fill="#DFEEFF"/>
<ellipse cx="153.039" cy="129.5" rx="3.53852" ry="3.5" fill="#DFEEFF"/>
<ellipse cx="153.039" cy="150.5" rx="3.53852" ry="3.5" fill="#DFEEFF"/>
<ellipse cx="174.27" cy="3.5" rx="3.53852" ry="3.5" fill="#DFEEFF"/>
<ellipse cx="174.27" cy="24.5" rx="3.53852" ry="3.5" fill="#DFEEFF"/>
<ellipse cx="174.27" cy="45.5" rx="3.53852" ry="3.5" fill="#DFEEFF"/>
<ellipse cx="174.27" cy="66.5" rx="3.53852" ry="3.5" fill="#DFEEFF"/>
<ellipse cx="174.27" cy="87.5" rx="3.53852" ry="3.5" fill="#DFEEFF"/>
<ellipse cx="174.27" cy="108.5" rx="3.53852" ry="3.5" fill="#DFEEFF"/>
<ellipse cx="174.27" cy="129.5" rx="3.53852" ry="3.5" fill="#DFEEFF"/>
<ellipse cx="174.27" cy="150.5" rx="3.53852" ry="3.5" fill="#DFEEFF"/>
</svg>
