<svg width="17" height="16" viewBox="0 0 17 16" fill="none" xmlns="http://www.w3.org/2000/svg">
<path d="M8.0522 0.0217818C6.30735 0.229454 4.78271 1.45361 4.22717 3.08577C3.82076 4.27058 4.02958 5.57343 4.79751 6.69032C4.89069 6.82632 5.11805 7.08771 5.30085 7.27024C5.48348 7.45636 5.61033 7.60673 5.58414 7.60673C5.47599 7.60673 4.47697 8.10779 4.09658 8.34762C3.40687 8.78795 2.63145 9.46794 2.11315 10.0944C1.46833 10.871 0.920274 11.9019 0.625754 12.8864C0.517604 13.2514 0.506381 13.8421 0.603307 14.1928C0.841883 15.0447 1.51306 15.689 2.42264 15.936C2.64999 15.9969 2.96696 16.0005 8.53309 16.0005C15.0947 16.0005 14.5801 16.0184 15.1282 15.7499C15.4637 15.5853 15.5606 15.5172 15.8142 15.2774C16.3472 14.7727 16.6195 13.9959 16.5151 13.2764C16.4107 12.5713 15.8963 11.408 15.3407 10.6168C14.4312 9.32117 13.2456 8.35823 11.7953 7.73195L11.4448 7.58158L11.6684 7.37032C12.2835 6.7904 12.7086 6.07465 12.9211 5.24412C13.0478 4.76086 13.0628 4.0056 12.9546 3.52593C12.5707 1.8043 11.128 0.42276 9.3534 0.0754965C8.98423 0.0039866 8.39519 -0.0211568 8.0522 0.0217818ZM9.55099 1.1421C10.4905 1.4141 11.1914 1.97247 11.6089 2.78503C12.0191 3.58683 12.0973 4.45311 11.8327 5.33C11.5642 6.22126 10.9529 6.90861 10.0581 7.3202C9.02164 7.79268 7.6832 7.73538 6.6954 7.17342C6.38591 6.99448 5.8938 6.55775 5.69995 6.28216C5.04 5.34796 4.89086 4.14878 5.30476 3.09654C5.65897 2.19091 6.37843 1.51794 7.34039 1.19223C7.75054 1.05263 8.00391 1.02406 8.62662 1.03468C9.14084 1.04545 9.2677 1.05982 9.55099 1.1421ZM6.98975 8.3726C7.11644 8.42272 7.20605 8.48003 7.20231 8.5086C7.19483 8.5695 6.25906 12.5176 6.24427 12.5641C6.23304 12.5927 8.1493 13.9242 8.44008 14.0926C8.49228 14.1211 10.718 12.6286 10.7068 12.5713C10.7031 12.5461 10.4905 11.6407 10.2334 10.5525C9.97611 9.46435 9.76372 8.55513 9.76372 8.53015C9.76372 8.50158 9.88667 8.43709 10.0395 8.38338L10.3154 8.28672L10.774 8.42991C12.8356 9.08133 14.4499 10.5739 15.218 12.5463C15.5348 13.366 15.5759 13.7705 15.3708 14.1749C15.218 14.479 14.875 14.8049 14.5917 14.9122L14.3681 14.998L8.70127 15.0088C4.82029 15.016 2.9525 15.0052 2.77735 14.9802C2.63196 14.9589 2.43437 14.898 2.3337 14.8442C2.10635 14.7262 1.83036 14.4362 1.68872 14.1641C1.59179 13.9816 1.58057 13.9278 1.58431 13.6201C1.58431 13.3194 1.60301 13.2299 1.74466 12.8327C2.49032 10.6957 4.11205 9.12427 6.27811 8.4335C6.52416 8.3548 6.73672 8.29031 6.74777 8.28672C6.75866 8.28672 6.86664 8.32607 6.98975 8.3726ZM9.10734 10.352C9.33095 11.2934 9.52124 12.088 9.52872 12.1166C9.53994 12.1523 9.36836 12.2883 9.02538 12.5176C8.73834 12.7109 8.49228 12.8684 8.47732 12.8684C8.4661 12.8684 8.22004 12.7109 7.933 12.5212C7.57879 12.2813 7.41861 12.1561 7.42966 12.1167C7.44088 12.0882 7.62726 11.2936 7.85104 10.3556L8.25371 8.6446H8.47732H8.70467L9.10734 10.352Z" fill="#005CB9"/>
</svg>
