<svg width="15" height="16" viewBox="0 0 15 16" fill="none" xmlns="http://www.w3.org/2000/svg">
<path d="M6.93577 0.00767707C6.89001 0.0142371 6.76553 0.0371174 6.65753 0.0567974C6.54953 0.0764774 6.38265 0.115678 6.28761 0.145118C6.12393 0.194238 6.11737 0.200797 6.13369 0.295677C6.17625 0.537917 6.34649 2.0272 6.34649 2.14832C6.34649 2.25632 6.33673 2.2792 6.28105 2.2792C6.20249 2.2792 6.18617 2.22352 5.95049 1.18272C5.85881 0.767038 5.76713 0.416797 5.75417 0.400477C5.73785 0.380797 5.63305 0.429917 5.50537 0.518237C4.78521 0.996157 4.39897 1.61152 4.26809 2.47568C4.21577 2.8128 4.16009 2.95024 4.05529 2.98304C4.02249 2.9928 3.95705 3.03216 3.91129 3.06816C3.82617 3.1336 3.82617 3.14336 3.82617 3.5592V3.988L3.92105 4.08288C3.99305 4.15168 4.04873 4.17776 4.13705 4.17776C4.21225 4.17776 4.29417 4.2072 4.35961 4.25632C5.21065 4.89136 7.15497 5.14672 8.71625 4.82592C9.28585 4.71136 9.85529 4.48544 10.1598 4.25968C10.2155 4.22032 10.3235 4.17792 10.4052 4.168C10.5067 4.15488 10.5755 4.12224 10.6246 4.0632C10.6932 3.98464 10.6999 3.94528 10.6999 3.55904C10.6999 3.1008 10.6999 3.09744 10.4774 2.98624C10.3465 2.91744 10.2908 2.79632 10.2614 2.50832C10.1731 1.68992 9.74425 0.999357 9.02089 0.518237C8.89321 0.429917 8.78841 0.380797 8.77209 0.400477C8.75897 0.416797 8.66745 0.767038 8.57577 1.18272C8.34329 2.21056 8.32041 2.2792 8.24841 2.2792C8.21561 2.2792 8.17977 2.25952 8.17321 2.23664C8.16009 2.2072 8.27465 1.16624 8.38601 0.311997L8.40233 0.190877L8.21577 0.138558C8.11433 0.109118 7.96697 0.0697572 7.88521 0.0534372C7.71817 0.0174372 7.06025 -0.0153629 6.93577 0.00767707Z" fill="#005CB9"/>
<path d="M4.252 4.82592C4.252 4.88816 4.21264 4.96336 4.14064 5.03872C4.0064 5.18272 3.95728 5.37264 3.95728 5.76208C3.95728 6.29888 4.19296 6.90768 4.59232 7.40528C4.756 7.60816 4.8312 7.7392 4.90656 7.94864C5.23392 8.852 5.94752 9.54272 6.77232 9.76208C7.8984 10.0566 9.13888 9.26448 9.62336 7.93888C9.69536 7.7392 9.77392 7.60176 9.93424 7.40528C10.1928 7.08128 10.4154 6.64592 10.507 6.276C10.6379 5.75232 10.5562 5.12384 10.3402 4.9896C10.2976 4.96016 10.2747 4.91104 10.2747 4.8456V4.7408L10.0227 4.86512C9.45648 5.14 8.7592 5.32016 7.99984 5.3856C6.65776 5.50352 5.41072 5.3168 4.51712 4.86512L4.252 4.73424V4.82592Z" fill="#005CB9"/>
<path d="M4.56276 9.24144C2.38932 10.1416 1.79684 10.4526 1.28628 10.9763C0.644675 11.6342 0.140675 12.8618 0.0261152 14.0499C-0.0327648 14.6456 -0.0393248 14.6326 0.533475 14.8518C1.97044 15.392 4.3042 15.68 7.26324 15.68C10.2909 15.68 12.638 15.3821 14.0912 14.8126C14.5528 14.6326 14.5528 14.6326 14.5037 14.099C14.3892 12.865 13.8981 11.6637 13.2304 10.9666C12.7557 10.4755 12.2452 10.1941 10.4416 9.44448C10.0554 9.284 9.73124 9.16288 9.71828 9.176C9.70516 9.18912 9.6626 9.33312 9.62004 9.4968C9.46948 10.0925 9.129 11.248 8.93588 11.811C8.6314 12.6981 8.14052 13.811 8.10116 13.703C8.0914 13.6768 8.03252 13.3331 7.97028 12.9371L7.85908 12.2235L7.93764 12.1515C8.00964 12.0926 8.03588 11.9944 8.15364 11.3693C8.25844 10.8325 8.28452 10.6426 8.25844 10.6C8.2258 10.5509 8.12756 10.5443 7.2634 10.5443C6.39924 10.5443 6.301 10.5509 6.26836 10.6C6.24212 10.6426 6.26836 10.8389 6.37316 11.3856C6.5074 12.0829 6.53348 12.1646 6.64484 12.2038C6.66772 12.2136 6.46804 13.5819 6.42548 13.703C6.38292 13.8176 5.88868 12.6851 5.56468 11.7259C5.35844 11.1237 5.10308 10.2563 4.897 9.46736C4.85444 9.30368 4.80532 9.16944 4.789 9.16624C4.77236 9.16288 4.67092 9.19568 4.56276 9.24144Z" fill="#005CB9"/>
</svg>
