<svg width="17" height="16" viewBox="0 0 17 16" fill="none" xmlns="http://www.w3.org/2000/svg">
<path d="M9.13204 12.1653L4.86607 9.49944V12.1653L0.600098 9.49944V14.9993C0.600098 15.5511 1.07719 16 1.66746 16H12.8652C13.4537 16 13.9326 15.5527 13.9326 14.9993V12.4983L9.13204 9.49944V12.1653ZM3.80045 13.9986C3.80045 14.2745 3.5619 14.4981 3.26764 14.4981H2.73482C2.44056 14.4981 2.20201 14.2745 2.20201 13.9986V13.499C2.20201 13.2231 2.44056 12.9995 2.73482 12.9995H3.26764C3.5619 12.9995 3.80045 13.2231 3.80045 13.499V13.9986ZM8.06642 13.9986C8.06642 14.2745 7.82787 14.4981 7.5336 14.4981H7.00079C6.70653 14.4981 6.46798 14.2745 6.46798 13.9986V13.499C6.46798 13.2231 6.70653 12.9995 7.00079 12.9995H7.5336C7.82787 12.9995 8.06642 13.2231 8.06642 13.499V13.9986ZM10.7322 13.499C10.7322 13.2231 10.9708 12.9995 11.265 12.9995H11.7978C12.0921 12.9995 12.3306 13.2231 12.3306 13.499V13.9986C12.3306 14.2745 12.0921 14.4981 11.7978 14.4981H11.265C10.9708 14.4981 10.7322 14.2745 10.7322 13.9986V13.499ZM11.2964 3.96857C11.4357 4.49587 12.0712 4.90562 12.8687 4.98235C12.8687 4.98888 12.8669 4.99378 12.8669 5.00031C12.8669 5.55209 13.344 6.00102 13.9343 6.00102C14.5228 6.00102 15.0017 5.55372 15.0017 5.00031C15.0017 4.75707 14.9059 4.53668 14.7509 4.36364C14.9059 4.1808 15.0017 3.97347 15.0017 3.74982C15.0017 3.45271 14.8415 3.18498 14.5838 2.96949C14.8415 2.68054 15.0017 2.35405 15.0017 1.9998C14.9982 0.894603 13.5652 0 11.7996 0C10.0322 0 8.59923 0.894603 8.59923 1.9998C8.59923 2.99561 9.76932 3.81675 11.2964 3.96857ZM15.531 6.99847H12.3324C11.7439 6.99847 11.265 7.44577 11.265 7.99755V9.99735L14.4654 11.9988V15.9984H15.5327C16.1213 15.9984 16.6001 15.5511 16.6001 14.9977V7.99918C16.5984 7.4474 16.1195 6.99847 15.531 6.99847Z" fill="#005CB9"/>
</svg>
