<svg width="31" height="31" viewBox="0 0 31 31" fill="none" xmlns="http://www.w3.org/2000/svg">
<path fill-rule="evenodd" clip-rule="evenodd" d="M14.0167 0.904786H16.9895C18.5876 0.904753 19.8935 0.904725 20.9246 1.04026C22.0023 1.18193 22.9366 1.48852 23.6824 2.21774C24.4283 2.94697 24.7418 3.86053 24.8867 4.91425C24.958 5.43246 24.9926 6.02169 25.0094 6.68425C26.5022 6.91971 27.7257 7.38324 28.7054 8.34118C29.7611 9.3734 30.2297 10.6823 30.452 12.2994C30.6681 13.8707 30.6681 15.8785 30.6681 18.4133V18.5689C30.6681 21.1037 30.6681 23.1115 30.452 24.6828C30.2297 26.2999 29.7611 27.6088 28.7054 28.641C27.6497 29.6732 26.311 30.1313 24.6571 30.3487C23.05 30.56 20.9966 30.56 18.4041 30.56H12.6021C10.0096 30.56 7.95615 30.56 6.34907 30.3487C4.69514 30.1313 3.35646 29.6732 2.30075 28.641C1.24504 27.6088 0.776527 26.2999 0.554162 24.6828C0.338095 23.1115 0.338113 21.1037 0.338135 18.5689V18.4133C0.338113 15.8785 0.338095 13.8707 0.554162 12.2994C0.776527 10.6823 1.24504 9.3734 2.30075 8.34118C3.2805 7.38324 4.50394 6.91972 5.99677 6.68425C6.01359 6.02169 6.04821 5.43246 6.11946 4.91425C6.26436 3.86053 6.57793 2.94697 7.32375 2.21774C8.06958 1.48852 9.00393 1.18193 10.0816 1.04026C11.1127 0.904725 12.4186 0.904753 14.0167 0.904786ZM5.98091 8.78903C4.94971 8.99144 4.29618 9.31609 3.79702 9.80415C3.2 10.3879 2.84215 11.1874 2.65133 12.5751C2.45642 13.9925 2.45418 15.861 2.45418 18.4911C2.45418 21.1212 2.45642 22.9897 2.65133 24.4071C2.84215 25.7948 3.2 26.5943 3.79702 27.1781C4.39404 27.7618 5.21174 28.1117 6.63103 28.2982C8.08075 28.4888 9.99177 28.491 12.6817 28.491H18.3245C21.0144 28.491 22.9254 28.4888 24.3752 28.2982C25.7944 28.1117 26.6121 27.7618 27.2092 27.1781C27.8062 26.5943 28.164 25.7948 28.3549 24.4071C28.5498 22.9897 28.552 21.1212 28.552 18.4911C28.552 15.861 28.5498 13.9925 28.3549 12.5751C28.164 11.1874 27.8062 10.3879 27.2092 9.80415C26.71 9.31609 26.0565 8.99144 25.0253 8.78903V10.3895C25.0253 10.4532 25.0253 10.516 25.0254 10.5782C25.0266 11.6624 25.0275 12.5212 24.659 13.2904C24.2905 14.0597 23.6152 14.6088 22.7625 15.302C22.7137 15.3417 22.6642 15.3819 22.6142 15.4227L21.546 16.293C20.2956 17.3118 19.2822 18.1376 18.3877 18.7001C17.456 19.286 16.5485 19.6562 15.5031 19.6562C14.4577 19.6562 13.5502 19.286 12.6185 18.7001C11.724 18.1376 10.7106 17.3119 9.4602 16.293L8.39196 15.4227C8.34196 15.3819 8.29253 15.3417 8.24367 15.302C7.39104 14.6088 6.71568 14.0597 6.34717 13.2904C5.97865 12.5212 5.97959 11.6624 5.98077 10.5782C5.98084 10.516 5.98091 10.4532 5.98091 10.3895L5.98091 8.78903ZM10.3636 3.09076C9.52054 3.20158 9.10715 3.39997 8.82002 3.68071C8.53289 3.96145 8.32998 4.36564 8.21664 5.18993C8.0992 6.04398 8.09695 7.18099 8.09695 8.83575V10.3895C8.09695 11.7568 8.12033 12.1141 8.26343 12.4129C8.40654 12.7116 8.67231 12.9579 9.74662 13.8333L10.7618 14.6604C12.0779 15.7328 12.9917 16.4749 13.7631 16.96C14.5099 17.4296 15.0163 17.5872 15.5031 17.5872C15.9899 17.5872 16.4963 17.4296 17.2431 16.96C18.0145 16.4749 18.9283 15.7328 20.2444 14.6604L21.2596 13.8333C22.3339 12.9579 22.5997 12.7116 22.7428 12.4129C22.8859 12.1141 22.9092 11.7568 22.9092 10.3895V8.83575C22.9092 7.18099 22.907 6.04398 22.7896 5.18993C22.6762 4.36564 22.4733 3.96145 22.1862 3.68071C21.899 3.39997 21.4857 3.20158 20.6426 3.09076C19.7691 2.97593 18.6062 2.97373 16.9138 2.97373H14.0924C12.4 2.97373 11.2371 2.97593 10.3636 3.09076ZM11.6237 7.45645C11.6237 6.88513 12.0974 6.42198 12.6817 6.42198H18.3245C18.9088 6.42198 19.3825 6.88513 19.3825 7.45645C19.3825 8.02778 18.9088 8.49093 18.3245 8.49093H12.6817C12.0974 8.49093 11.6237 8.02778 11.6237 7.45645ZM13.0344 11.5943C13.0344 11.023 13.5081 10.5599 14.0924 10.5599H16.9138C17.4981 10.5599 17.9718 11.023 17.9718 11.5943C17.9718 12.1657 17.4981 12.6288 16.9138 12.6288H14.0924C13.5081 12.6288 13.0344 12.1657 13.0344 11.5943Z" fill="#005CB9"/>
</svg>
