<svg xmlns="http://www.w3.org/2000/svg" viewBox="0 0 144.07 58.43"><defs><style>.cls-1{fill:#005cb9;}.cls-2{fill:#91989e;}</style></defs><g id="Layer_2" data-name="Layer 2"><g id="Layer_1-2" data-name="Layer 1"><path class="cls-1" d="M141,10.19c-3.17.18-3.7,2.7-3.7,5.62V33a1.91,1.91,0,0,1-1.22,1.76l-.49.18a5.72,5.72,0,0,0,3,.71c3.17-.18,3.7-2.7,3.7-5.62V12.84a1.91,1.91,0,0,1,1.22-1.76l.5-.18A5.77,5.77,0,0,0,141,10.19Z" transform="translate(0 0)"/><path class="cls-1" d="M129.85,10.19c-3.17.18-3.69,2.7-3.69,5.62v6.36h0v5.46h0c0,3.84-2.87,6.38-5.31,6.38h-7.22a10.61,10.61,0,0,0,5.15-9.55c0-8.27-6.74-11.18-11.33-11.18-7,0-10.5,3-12.86,11.18-1,3.07-2.45,8.23-6,9.3a6,6,0,0,1-2.21.27V17.2h0V12.84a1.91,1.91,0,0,1,1.22-1.76l.5-.18a5.74,5.74,0,0,0-3-.71c-3.18.18-3.7,2.7-3.7,5.62v6.36h0V35.64H86.6c7,0,10.49-3,12.86-11.18,2.87-8.56,4.52-10.28,8-10.28,1.4,0,5.41.21,5.41,10.28,0,5.59-1.36,9.54-5.37,9.54-4.19,0-5.74-3.69-5.38-11.58-.93,1.26-3.22,7.49-2.79,9.53.21,1.15,3.47,3.69,8.16,3.69h16.45a7.21,7.21,0,0,0,7.23-6.89h0V17.2h0V12.84a1.91,1.91,0,0,1,1.22-1.76l.5-.18A5.75,5.75,0,0,0,129.85,10.19Z" transform="translate(0 0)"/><path class="cls-1" d="M29.8,16.54A1.91,1.91,0,0,1,31,14.78l.5-.18a5.77,5.77,0,0,0-3-.71c-3.17.18-3.7,2.7-3.7,5.62v8.12c0,3.84-2.87,6.38-5.3,6.38H11.65c-2.4,0-5.74-.3-5.74-9.55,0-2.83.26-6.47,2.45-8.57a6.17,6.17,0,0,1,8.55.26c-.3-2.68-4.19-3.7-6.51-3.44A11.77,11.77,0,0,0,2.34,17.3,12,12,0,0,0,0,24.46c0,6.2,4.48,11.18,11.65,11.18H22.56A7.22,7.22,0,0,0,29.8,28.4Z" transform="translate(0 0)"/><path class="cls-1" d="M66.55,13.47h-.5c-6,0-9.41,2.23-11.76,8l0,0a62.71,62.71,0,0,1-2.91,5.77c.18-.36.4-.85.67-1.51,2.76-6.85,1.2-9,1-9.23-.92-1.19-3.61-2.86-7.25-3h-.58a12.31,12.31,0,0,0-4.11.69l-.1,0-.11,0a10.46,10.46,0,0,0-7,9.83c0,.19,0,.39,0,.59h0c0,8,6.26,11,10.82,11.17h.5a19.13,19.13,0,0,0,2.83-.2A13.87,13.87,0,0,1,36.76,43S50,49.26,57.55,26.24c.18-.51.34-1,.51-1.6.71-2.13,1.35-3.84,2-5.2.94-1.89,2.22-3.55,4.08-4.1,5.67-1.7,7.21,4.22,7.35,8.64,0,.22,0,.43,0,.66,0,3.29-.47,6-1.68,7.69l0,.05-.16.2,0,.05-.19.21,0,0a4.28,4.28,0,0,1-3.25,1.3c-4.19,0-5.73-3.69-5.37-11.57-.94,1.25-3.23,7.48-2.8,9.53.21,1.1,3.21,3.48,7.59,3.67h.58a12.36,12.36,0,0,0,4.11-.69l.1,0,.1,0a10.47,10.47,0,0,0,7-9.83c0-.2,0-.39,0-.59h0C77.37,16.65,71.11,13.67,66.55,13.47Zm-16,13.21h0a25,25,0,0,1-1.18,5.89,5.22,5.22,0,0,1-2.21,1.37c-5.67,1.7-7.22-4.22-7.35-8.65,0-.21,0-.43,0-.65,0-3.29.47-6,1.68-7.69l0-.05.16-.2,0-.06.18-.2,0,0a4.29,4.29,0,0,1,3.25-1.31C49.35,15.1,50.89,18.79,50.53,26.68Z" transform="translate(0 0)"/><path class="cls-1" d="M87.18,6.86a1.27,1.27,0,0,0,1.26-1.18A1.71,1.71,0,0,1,87.32,6H86.09a2.36,2.36,0,0,1-1.91-1.32c-.41-1-.3-2.91,1.11-3.39a1.83,1.83,0,0,1,1.56.21,1.5,1.5,0,0,1,.62.9c.44-1.2-.68-2.14-1.76-2.32A3.43,3.43,0,0,0,82,4.56a2.67,2.67,0,0,0,1,1.43,2.16,2.16,0,0,0-2.13,1.76c.93-.86,1.83-.89,3.42-.89Z" transform="translate(0 0)"/><circle class="cls-1" cx="20.44" cy="10.18" r="2.73"/><path class="cls-2" d="M7.48,43.9,1.64,58.11H0v.27H3.7v-.27H2l2.17-5.25h4.7L10.7,57.2a1.93,1.93,0,0,0,1.78,1.18h1.8L8,43.9ZM4.23,52.59l2.19-5.35,2.31,5.35Z" transform="translate(0 0)"/><path class="cls-2" d="M76.58,49.42c-1.89,0-3.21,1-3.29,1.48a8.71,8.71,0,0,0,1.12,3.84c-.14-3.17.48-5,2.17-5s2.16,1.88,2.16,4.13c0,4.06-1.61,4.14-2.18,4.14-1.4,0-2.06-.69-3.22-4.14-1-3.28-2.36-4.5-5.18-4.5a4.51,4.51,0,1,0,0,9c1.88,0,3.19-1,3.28-1.48a8.79,8.79,0,0,0-1.13-3.85c.16,3.19-.48,5-2.15,5S66,56.17,66,53.92c0-4.06,1.62-4.13,2.18-4.13,1.4,0,2.06.69,3.22,4.13,1,3.28,2.37,4.51,5.18,4.51a4.51,4.51,0,1,0,0-9Z" transform="translate(0 0)"/><path class="cls-2" d="M91.86,58a1.11,1.11,0,0,1-.58-1.12v-1.2h0v-3.3a2.84,2.84,0,0,0-.71-2,2.65,2.65,0,0,0-2-.74,3.52,3.52,0,0,0-1.47.26,3.46,3.46,0,0,0-1,.62,3,3,0,0,0-.56.71c-.13.24-.23.42-.28.54h0c0-1.3-.31-2-1.76-2.13a2.75,2.75,0,0,0-1.44.33l.24.09a1.1,1.1,0,0,1,.57,1.12v6.3a1,1,0,0,0,1,1h1.4V53.67a5.6,5.6,0,0,1,.2-1.57A3.63,3.63,0,0,1,86,51a2.07,2.07,0,0,1,.75-.67,1.94,1.94,0,0,1,.9-.23,1.12,1.12,0,0,1,.9.39,1.79,1.79,0,0,1,.33,1.2v4.45c0,1.38.27,2.18,1.77,2.26a2.71,2.71,0,0,0,1.43-.33Z" transform="translate(0 0)"/><path class="cls-2" d="M62,56.84V52.51c0-.23,0-.52,0-.86a2.32,2.32,0,0,0-.32-1,2.28,2.28,0,0,0-.88-.79A3.69,3.69,0,0,0,59,49.56a4.27,4.27,0,0,0-.55,0,3,3,0,0,0-1.43.69,3,3,0,0,0-.66.83c-.1-.18-.22-.36-.34-.55a2.31,2.31,0,0,0-.49-.5,2.69,2.69,0,0,0-.76-.37,3.8,3.8,0,0,0-1.15-.14,3.09,3.09,0,0,0-1.11.17,3.58,3.58,0,0,0-.78.42,2.8,2.8,0,0,0-.52.51c-.1.13-.24.35-.34.51-.1-1-.49-1.54-1.74-1.61a2.73,2.73,0,0,0-1.43.33l.23.09a1.1,1.1,0,0,1,.58,1.12v6.3a1,1,0,0,0,1,1h1.4v-5.3c0-.33,0-.6,0-.83a3.38,3.38,0,0,1,.1-.61,1.64,1.64,0,0,1,.18-.47,2.63,2.63,0,0,1,.28-.4,1.74,1.74,0,0,1,1.37-.69,1.19,1.19,0,0,1,.82.35,1.57,1.57,0,0,1,.37,1.2V57.4a1,1,0,0,0,1,1h1.4v-6.3a1.85,1.85,0,0,1,.21-.91,2,2,0,0,1,.49-.62,2.52,2.52,0,0,1,.61-.35,1.56,1.56,0,0,1,.53-.12,1.15,1.15,0,0,1,1,.44,2.27,2.27,0,0,1,.3,1.27v3.53h0v.8c0,1.38.26,2.18,1.77,2.26a2.73,2.73,0,0,0,1.43-.33L62.55,58A1.11,1.11,0,0,1,62,56.84Z" transform="translate(0 0)"/><path class="cls-2" d="M35.32,56.84V52.51c0-.23,0-.52,0-.86a2.32,2.32,0,0,0-.32-1,2.21,2.21,0,0,0-.88-.79,3.69,3.69,0,0,0-1.73-.33,4,4,0,0,0-.54,0,3.18,3.18,0,0,0-.71.22,3.11,3.11,0,0,0-.73.47,3,3,0,0,0-.66.83c-.1-.18-.22-.36-.34-.55a2.1,2.1,0,0,0-.49-.5,2.69,2.69,0,0,0-.76-.37A3.8,3.8,0,0,0,27,49.56a3,3,0,0,0-1.1.17,3.45,3.45,0,0,0-.79.42,3.15,3.15,0,0,0-.52.51c-.09.13-.24.35-.34.51-.1-1-.49-1.54-1.73-1.61a2.75,2.75,0,0,0-1.44.33l.24.09a1.1,1.1,0,0,1,.57,1.12v6.3a1,1,0,0,0,1,1h1.4v-5.3c0-.33,0-.6,0-.83a3.38,3.38,0,0,1,.1-.61,2,2,0,0,1,.18-.47,2.63,2.63,0,0,1,.28-.4,1.76,1.76,0,0,1,1.37-.69,1.19,1.19,0,0,1,.82.35,1.57,1.57,0,0,1,.37,1.2V57.4a1,1,0,0,0,1,1h1.4v-6.3a1.85,1.85,0,0,1,.21-.91,1.93,1.93,0,0,1,.5-.62,2.29,2.29,0,0,1,.6-.35,1.56,1.56,0,0,1,.53-.12,1.15,1.15,0,0,1,1,.44,2.27,2.27,0,0,1,.3,1.27v3.53h0v.8c0,1.38.27,2.18,1.77,2.26a2.71,2.71,0,0,0,1.43-.33L35.9,58A1.11,1.11,0,0,1,35.32,56.84Z" transform="translate(0 0)"/><path class="cls-2" d="M45.36,56.84V52.22a2.89,2.89,0,0,0-.28-1.36,2.35,2.35,0,0,0-.76-.86,3.22,3.22,0,0,0-1.14-.43,8.83,8.83,0,0,0-1.4-.11,5.61,5.61,0,0,0-1.24.13,4.11,4.11,0,0,0-1.07.41c-.7.39-1.4,1.65-.61,2.38a1.26,1.26,0,0,0,1.51,0c.56-.33.33-1.1.28-1.64a.86.86,0,0,1,.33-.85,1.42,1.42,0,0,1,.78-.21,1,1,0,0,1,1,.43,1.86,1.86,0,0,1,.25,1v1.19a1.49,1.49,0,0,1-.1.61,1.08,1.08,0,0,1-.38.42,3.6,3.6,0,0,1-.78.36l-1.3.4c-.33.1-.64.21-.95.32a3,3,0,0,0-.82.43,2.16,2.16,0,0,0-.59.65,1.83,1.83,0,0,0-.22,1,1.66,1.66,0,0,0,.25.93,1.74,1.74,0,0,0,.67.59,3.2,3.2,0,0,0,.9.32,5.2,5.2,0,0,0,1,.09,3.65,3.65,0,0,0,1.58-.27,1.91,1.91,0,0,0,.86-1c.14.79.58,1.25,1.69,1.31a2.75,2.75,0,0,0,1.44-.33L45.94,58A1.11,1.11,0,0,1,45.36,56.84Zm-2.82.63a1.07,1.07,0,0,1-.44.36,1.22,1.22,0,0,1-1.2-.08,1.31,1.31,0,0,1-.38-.5,1.9,1.9,0,0,1-.16-.61c0-.21,0-.39,0-.55a2.08,2.08,0,0,1,.19-1,2,2,0,0,1,.48-.62,2.65,2.65,0,0,1,.66-.42l.75-.35a1.57,1.57,0,0,0,.38-.24.65.65,0,0,0,.15-.23h0v2.59a3.45,3.45,0,0,1-.11,1A1.82,1.82,0,0,1,42.54,57.47Z" transform="translate(0 0)"/><path class="cls-2" d="M18.62,56.84V48.3h0v-2c0-1.38-.26-2.18-1.76-2.26a2.75,2.75,0,0,0-1.44.33l.24.09a1.1,1.1,0,0,1,.58,1.12V54.1h0v2c0,1.38.26,2.18,1.76,2.26a2.75,2.75,0,0,0,1.44-.33L19.2,58A1.11,1.11,0,0,1,18.62,56.84Z" transform="translate(0 0)"/></g></g></svg>