<svg width="16" height="16" viewBox="0 0 16 16" fill="none" xmlns="http://www.w3.org/2000/svg">
<mask id="path-1-inside-1_3103_904" fill="white">
<path d="M15.8524 15.4423C15.6728 15.3467 15.4981 15.2191 15.3136 15.0822C14.9152 14.7878 14.5054 14.4821 13.9764 14.4821C13.5683 14.4821 13.2172 14.7352 12.8776 14.9809C12.569 15.2041 12.2768 15.416 11.9796 15.416C11.9584 15.416 11.9372 15.4123 11.916 15.4104L13.885 9.34701C13.8964 9.31325 13.9013 9.27761 13.9013 9.24198L13.8752 7.25585C13.8736 7.12082 13.7919 7.00641 13.6776 6.9764L11.8719 6.50378V4.18007C11.8719 4.07317 11.7968 3.98502 11.7021 3.98502H11.0066V2.63655C11.0066 2.52965 10.9315 2.4415 10.8368 2.4415H8.90529V0.958001C8.90529 0.695434 8.81222 0.451622 8.64242 0.267826C8.47099 0.0840291 8.23752 -0.0134956 8.00078 0.00150825C7.76404 -0.0134956 7.52893 0.0840291 7.35913 0.267826C7.18933 0.449747 7.09627 0.695434 7.09627 0.958001V2.4415H5.16479C5.07173 2.4415 4.99499 2.52777 4.99499 2.63655V3.98502H4.29947C4.2064 3.98502 4.12967 4.07129 4.12967 4.18007V6.50191L2.32391 6.97453C2.20962 7.00454 2.12799 7.12082 2.12636 7.25397L2.10023 9.2401C2.10023 9.27199 2.1035 9.30387 2.11329 9.33575L4.08558 15.4085C4.05783 15.4123 4.03007 15.416 4.00395 15.416C3.7166 15.416 3.42598 15.206 3.11903 14.9847C2.77617 14.7371 2.4235 14.4821 2.01533 14.4821C1.48797 14.4821 1.07817 14.7878 0.683057 15.0822C0.500196 15.2191 0.327131 15.3467 0.147535 15.4423C0.0201847 15.5098 -0.0353267 15.6824 0.0234501 15.8305C0.0659001 15.9374 0.158963 15.9993 0.253659 15.9993C0.289579 15.9993 0.325498 15.9899 0.359784 15.9731C0.572034 15.8605 0.767957 15.7142 0.958982 15.5717C1.30838 15.311 1.63818 15.0653 2.0137 15.0653C2.27493 15.0653 2.55249 15.266 2.84637 15.4779C3.20067 15.733 3.56639 15.9993 4.00068 15.9993C4.14436 15.9993 4.27824 15.9693 4.40886 15.9206C4.41539 15.9206 4.42029 15.9243 4.42682 15.9243C4.4562 15.9243 4.48559 15.9187 4.51498 15.9055C4.5509 15.8905 4.58192 15.8624 4.60641 15.8324C4.78927 15.7368 4.96071 15.6111 5.13051 15.4873C5.42602 15.2698 5.70685 15.0653 5.9893 15.0653C6.27502 15.0653 6.56074 15.2716 6.86116 15.4911C7.20566 15.7405 7.56321 15.9993 7.98608 15.9993C8.41385 15.9993 8.76161 15.7255 9.07019 15.4854C9.34611 15.2698 9.60734 15.0653 9.88817 15.0653C10.1739 15.0653 10.4743 15.2698 10.7927 15.4873C10.9935 15.6242 11.1992 15.763 11.4147 15.8624C11.4343 15.8793 11.4555 15.8943 11.4817 15.9055C11.5094 15.9168 11.5388 15.9224 11.5666 15.9243C11.6988 15.9712 11.8343 15.9993 11.978 15.9993C12.4221 15.9993 12.8074 15.7217 13.147 15.4761C13.4376 15.266 13.7136 15.0653 13.9748 15.0653C14.3536 15.0653 14.685 15.311 15.0377 15.5717C15.2287 15.7142 15.4263 15.8605 15.6385 15.9731C15.7659 16.0406 15.9177 15.9768 15.9748 15.8305C16.0369 15.6824 15.9797 15.5098 15.8524 15.4423ZM7.43586 0.958001C7.43586 0.804212 7.49138 0.6598 7.59097 0.552898C7.69709 0.438494 7.83914 0.380354 7.99098 0.391607C7.99751 0.391607 8.00567 0.391607 8.0122 0.391607C8.16404 0.378479 8.30446 0.438494 8.41221 0.552898C8.51181 0.661676 8.56732 0.804212 8.56732 0.958001V2.4415H8.00078H7.43586V0.958001ZM5.33459 2.8316H7.26606H8.00078H8.73549H10.667V3.98502H8.00078H5.33459V2.8316ZM4.46927 4.37324H8.00078H11.5323V6.41189L8.08241 5.50978C8.05465 5.50228 8.0269 5.50228 8.00078 5.50603C7.97465 5.50228 7.9469 5.50416 7.91914 5.50978L4.46927 6.41376V4.37324ZM2.63249 7.49216L8.00078 6.08555L13.3691 7.49216L13.387 8.87251L8.06118 7.37213C8.05792 7.37213 8.05465 7.37213 8.05139 7.37025C8.04323 7.36838 8.03343 7.3665 8.02527 7.3665C8.0171 7.3665 8.00894 7.36463 8.00078 7.36463C7.99261 7.36463 7.98445 7.36463 7.97628 7.3665C7.96812 7.36838 7.95833 7.36838 7.95016 7.37025C7.9469 7.37025 7.94363 7.37025 7.94037 7.37213L2.61453 8.87251L2.63249 7.49216ZM5.99257 14.4821C5.56154 14.4821 5.20398 14.7428 4.85948 14.9959C4.75825 15.071 4.65866 15.1422 4.5607 15.206L2.6929 9.45016L7.83098 8.00229V15.3917C7.60566 15.3354 7.37709 15.1704 7.13545 14.9959C6.78769 14.7428 6.42523 14.4821 5.99257 14.4821ZM9.89143 14.4821C9.45387 14.4821 9.09958 14.7596 8.78773 15.0034C8.57712 15.1685 8.37629 15.3241 8.17058 15.386V8.00229L13.3087 9.45016L11.4311 15.2304C11.3086 15.1591 11.1829 15.0747 11.0539 14.9866C10.6931 14.7371 10.3176 14.4821 9.89143 14.4821Z"/>
</mask>
<path d="M15.8524 15.4423C15.6728 15.3467 15.4981 15.2191 15.3136 15.0822C14.9152 14.7878 14.5054 14.4821 13.9764 14.4821C13.5683 14.4821 13.2172 14.7352 12.8776 14.9809C12.569 15.2041 12.2768 15.416 11.9796 15.416C11.9584 15.416 11.9372 15.4123 11.916 15.4104L13.885 9.34701C13.8964 9.31325 13.9013 9.27761 13.9013 9.24198L13.8752 7.25585C13.8736 7.12082 13.7919 7.00641 13.6776 6.9764L11.8719 6.50378V4.18007C11.8719 4.07317 11.7968 3.98502 11.7021 3.98502H11.0066V2.63655C11.0066 2.52965 10.9315 2.4415 10.8368 2.4415H8.90529V0.958001C8.90529 0.695434 8.81222 0.451622 8.64242 0.267826C8.47099 0.0840291 8.23752 -0.0134956 8.00078 0.00150825C7.76404 -0.0134956 7.52893 0.0840291 7.35913 0.267826C7.18933 0.449747 7.09627 0.695434 7.09627 0.958001V2.4415H5.16479C5.07173 2.4415 4.99499 2.52777 4.99499 2.63655V3.98502H4.29947C4.2064 3.98502 4.12967 4.07129 4.12967 4.18007V6.50191L2.32391 6.97453C2.20962 7.00454 2.12799 7.12082 2.12636 7.25397L2.10023 9.2401C2.10023 9.27199 2.1035 9.30387 2.11329 9.33575L4.08558 15.4085C4.05783 15.4123 4.03007 15.416 4.00395 15.416C3.7166 15.416 3.42598 15.206 3.11903 14.9847C2.77617 14.7371 2.4235 14.4821 2.01533 14.4821C1.48797 14.4821 1.07817 14.7878 0.683057 15.0822C0.500196 15.2191 0.327131 15.3467 0.147535 15.4423C0.0201847 15.5098 -0.0353267 15.6824 0.0234501 15.8305C0.0659001 15.9374 0.158963 15.9993 0.253659 15.9993C0.289579 15.9993 0.325498 15.9899 0.359784 15.9731C0.572034 15.8605 0.767957 15.7142 0.958982 15.5717C1.30838 15.311 1.63818 15.0653 2.0137 15.0653C2.27493 15.0653 2.55249 15.266 2.84637 15.4779C3.20067 15.733 3.56639 15.9993 4.00068 15.9993C4.14436 15.9993 4.27824 15.9693 4.40886 15.9206C4.41539 15.9206 4.42029 15.9243 4.42682 15.9243C4.4562 15.9243 4.48559 15.9187 4.51498 15.9055C4.5509 15.8905 4.58192 15.8624 4.60641 15.8324C4.78927 15.7368 4.96071 15.6111 5.13051 15.4873C5.42602 15.2698 5.70685 15.0653 5.9893 15.0653C6.27502 15.0653 6.56074 15.2716 6.86116 15.4911C7.20566 15.7405 7.56321 15.9993 7.98608 15.9993C8.41385 15.9993 8.76161 15.7255 9.07019 15.4854C9.34611 15.2698 9.60734 15.0653 9.88817 15.0653C10.1739 15.0653 10.4743 15.2698 10.7927 15.4873C10.9935 15.6242 11.1992 15.763 11.4147 15.8624C11.4343 15.8793 11.4555 15.8943 11.4817 15.9055C11.5094 15.9168 11.5388 15.9224 11.5666 15.9243C11.6988 15.9712 11.8343 15.9993 11.978 15.9993C12.4221 15.9993 12.8074 15.7217 13.147 15.4761C13.4376 15.266 13.7136 15.0653 13.9748 15.0653C14.3536 15.0653 14.685 15.311 15.0377 15.5717C15.2287 15.7142 15.4263 15.8605 15.6385 15.9731C15.7659 16.0406 15.9177 15.9768 15.9748 15.8305C16.0369 15.6824 15.9797 15.5098 15.8524 15.4423ZM7.43586 0.958001C7.43586 0.804212 7.49138 0.6598 7.59097 0.552898C7.69709 0.438494 7.83914 0.380354 7.99098 0.391607C7.99751 0.391607 8.00567 0.391607 8.0122 0.391607C8.16404 0.378479 8.30446 0.438494 8.41221 0.552898C8.51181 0.661676 8.56732 0.804212 8.56732 0.958001V2.4415H8.00078H7.43586V0.958001ZM5.33459 2.8316H7.26606H8.00078H8.73549H10.667V3.98502H8.00078H5.33459V2.8316ZM4.46927 4.37324H8.00078H11.5323V6.41189L8.08241 5.50978C8.05465 5.50228 8.0269 5.50228 8.00078 5.50603C7.97465 5.50228 7.9469 5.50416 7.91914 5.50978L4.46927 6.41376V4.37324ZM2.63249 7.49216L8.00078 6.08555L13.3691 7.49216L13.387 8.87251L8.06118 7.37213C8.05792 7.37213 8.05465 7.37213 8.05139 7.37025C8.04323 7.36838 8.03343 7.3665 8.02527 7.3665C8.0171 7.3665 8.00894 7.36463 8.00078 7.36463C7.99261 7.36463 7.98445 7.36463 7.97628 7.3665C7.96812 7.36838 7.95833 7.36838 7.95016 7.37025C7.9469 7.37025 7.94363 7.37025 7.94037 7.37213L2.61453 8.87251L2.63249 7.49216ZM5.99257 14.4821C5.56154 14.4821 5.20398 14.7428 4.85948 14.9959C4.75825 15.071 4.65866 15.1422 4.5607 15.206L2.6929 9.45016L7.83098 8.00229V15.3917C7.60566 15.3354 7.37709 15.1704 7.13545 14.9959C6.78769 14.7428 6.42523 14.4821 5.99257 14.4821ZM9.89143 14.4821C9.45387 14.4821 9.09958 14.7596 8.78773 15.0034C8.57712 15.1685 8.37629 15.3241 8.17058 15.386V8.00229L13.3087 9.45016L11.4311 15.2304C11.3086 15.1591 11.1829 15.0747 11.0539 14.9866C10.6931 14.7371 10.3176 14.4821 9.89143 14.4821Z" fill="#005CB9" stroke="#005CB9" stroke-width="2" mask="url(#path-1-inside-1_3103_904)"/>
<path d="M9.51274 8.9494C9.20253 8.9494 8.94946 9.2401 8.94946 9.59644C8.94946 9.95278 9.20253 10.2435 9.51274 10.2435C9.82295 10.2435 10.076 9.95278 10.076 9.59644C10.0777 9.2401 9.82458 8.9494 9.51274 8.9494ZM9.51274 9.85526C9.38866 9.85526 9.28743 9.73898 9.28743 9.59644C9.28743 9.4539 9.38866 9.33763 9.51274 9.33763C9.63683 9.33763 9.73805 9.4539 9.73805 9.59644C9.73805 9.73898 9.63683 9.85526 9.51274 9.85526Z" fill="black"/>
</svg>
