<svg width="31" height="30" viewBox="0 0 31 30" fill="none" xmlns="http://www.w3.org/2000/svg">
<path fill-rule="evenodd" clip-rule="evenodd" d="M12.6022 5.05904H18.4042C20.9968 5.05902 23.0502 5.059 24.6573 5.27052C26.3113 5.48821 27.65 5.94688 28.7057 6.98039C29.7614 8.0139 30.2299 9.32443 30.4523 10.9436C30.6684 12.5169 30.6683 14.5272 30.6683 17.0652V17.221C30.6683 19.759 30.6684 21.7693 30.4523 23.3426C30.2299 24.9617 29.7614 26.2722 28.7057 27.3057C27.65 28.3393 26.3113 28.7979 24.6573 29.0156C23.0502 29.2271 20.9968 29.2271 18.4042 29.2271H12.6022C10.0097 29.2271 7.95622 29.2271 6.34912 29.0156C4.69518 28.7979 3.35649 28.3393 2.30077 27.3057C1.24505 26.2722 0.776531 24.9617 0.554164 23.3426C0.338095 21.7693 0.338113 19.759 0.338135 17.221V17.0652C0.338113 14.5272 0.338095 12.5169 0.554164 10.9436C0.776531 9.32443 1.24505 8.0139 2.30077 6.98039C3.35649 5.94688 4.69518 5.48821 6.34912 5.27052C7.95622 5.059 10.0097 5.05902 12.6022 5.05904ZM6.63108 7.3236C5.21179 7.5104 4.39408 7.86073 3.79705 8.4452C3.52565 8.71088 3.30368 9.02122 3.12435 9.41123C5.70179 11.0493 7.39535 12.1061 8.82137 12.8035C8.91513 12.3254 9.34467 11.9642 9.8604 11.9642C10.4447 11.9642 10.9184 12.4279 10.9184 13V13.6324C13.9083 14.5156 17.0981 14.5157 20.088 13.6324V13C20.088 12.4279 20.5617 11.9642 21.1461 11.9642C21.6618 11.9642 22.0914 12.3255 22.1851 12.8036C23.6111 12.1062 25.3047 11.0495 27.8822 9.41134C27.7028 9.02128 27.4808 8.71091 27.2094 8.4452C26.6124 7.86073 25.7947 7.5104 24.3754 7.3236C22.9256 7.13279 21.0146 7.13059 18.3246 7.13059H12.6818C9.99185 7.13059 8.08082 7.13279 6.63108 7.3236ZM28.3966 11.5542C25.7346 13.2429 23.909 14.3604 22.2041 15.0778V15.762C22.2041 16.3341 21.7304 16.7978 21.1461 16.7978C20.5695 16.7978 20.1006 16.3463 20.0883 15.7847C17.0831 16.5603 13.9234 16.5603 10.9182 15.7846C10.9059 16.3462 10.437 16.7978 9.8604 16.7978C9.27607 16.7978 8.80237 16.3341 8.80237 15.762V15.0777C7.09753 14.3603 5.27188 13.2427 2.60985 11.5541C2.45611 12.9301 2.4542 14.7115 2.4542 17.1431C2.4542 19.7764 2.45644 21.6473 2.65135 23.0665C2.84217 24.456 3.20003 25.2565 3.79705 25.8409C4.39408 26.4254 5.21179 26.7757 6.63108 26.9625C8.08082 27.1533 9.99185 27.1556 12.6818 27.1556H18.3246C21.0146 27.1556 22.9256 27.1533 24.3754 26.9625C25.7947 26.7757 26.6124 26.4254 27.2094 25.8409C27.8064 25.2565 28.1643 24.456 28.3551 23.0665C28.55 21.6473 28.5523 19.7764 28.5523 17.1431C28.5523 14.7116 28.5503 12.9302 28.3966 11.5542Z" fill="#005CB9"/>
<path fill-rule="evenodd" clip-rule="evenodd" d="M15.5032 2.60646C14.1228 2.60646 12.9456 3.46964 12.5094 4.67792C12.3147 5.21726 11.7102 5.49995 11.1593 5.30932C10.6083 5.11869 10.3196 4.52693 10.5143 3.98758C11.24 1.97752 13.1981 0.534912 15.5032 0.534912C17.8082 0.534912 19.7663 1.97752 20.492 3.98758C20.6867 4.52693 20.398 5.11869 19.847 5.30932C19.2961 5.49995 18.6916 5.21726 18.4969 4.67792C18.0607 3.46964 16.8835 2.60646 15.5032 2.60646Z" fill="#005CB9"/>
</svg>
